<svg xmlns="http://www.w3.org/2000/svg" width="1200" height="630" viewBox="0 0 1200 630">
  <defs>
    <radialGradient id="glow" cx="50%" cy="44%" r="55%">
      <stop offset="0%" stop-color="#22c55e" stop-opacity="0.10"></stop>
      <stop offset="100%" stop-color="#080808" stop-opacity="0"></stop>
    </radialGradient>
    <linearGradient id="divider" x1="0%" y1="0%" x2="100%" y2="0%">
      <stop offset="0%" stop-color="transparent"></stop>
      <stop offset="30%" stop-color="#22c55e" stop-opacity="0.55"></stop>
      <stop offset="70%" stop-color="#a855f7" stop-opacity="0.55"></stop>
      <stop offset="100%" stop-color="transparent"></stop>
    </linearGradient>
  </defs>

  
  <rect width="1200" height="630" fill="#080808"></rect>

  
  <line x1="0" y1="0" x2="0" y2="630" stroke="#22c55e" stroke-opacity="0.05" stroke-width="1"></line><line x1="60" y1="0" x2="60" y2="630" stroke="#22c55e" stroke-opacity="0.05" stroke-width="1"></line><line x1="120" y1="0" x2="120" y2="630" stroke="#22c55e" stroke-opacity="0.05" stroke-width="1"></line><line x1="180" y1="0" x2="180" y2="630" stroke="#22c55e" stroke-opacity="0.05" stroke-width="1"></line><line x1="240" y1="0" x2="240" y2="630" stroke="#22c55e" stroke-opacity="0.05" stroke-width="1"></line><line x1="300" y1="0" x2="300" y2="630" stroke="#22c55e" stroke-opacity="0.05" stroke-width="1"></line><line x1="360" y1="0" x2="360" y2="630" stroke="#22c55e" stroke-opacity="0.05" stroke-width="1"></line><line x1="420" y1="0" x2="420" y2="630" stroke="#22c55e" stroke-opacity="0.05" stroke-width="1"></line><line x1="480" y1="0" x2="480" y2="630" stroke="#22c55e" stroke-opacity="0.05" stroke-width="1"></line><line x1="540" y1="0" x2="540" y2="630" stroke="#22c55e" stroke-opacity="0.05" stroke-width="1"></line><line x1="600" y1="0" x2="600" y2="630" stroke="#22c55e" stroke-opacity="0.05" stroke-width="1"></line><line x1="660" y1="0" x2="660" y2="630" stroke="#22c55e" stroke-opacity="0.05" stroke-width="1"></line><line x1="720" y1="0" x2="720" y2="630" stroke="#22c55e" stroke-opacity="0.05" stroke-width="1"></line><line x1="780" y1="0" x2="780" y2="630" stroke="#22c55e" stroke-opacity="0.05" stroke-width="1"></line><line x1="840" y1="0" x2="840" y2="630" stroke="#22c55e" stroke-opacity="0.05" stroke-width="1"></line><line x1="900" y1="0" x2="900" y2="630" stroke="#22c55e" stroke-opacity="0.05" stroke-width="1"></line><line x1="960" y1="0" x2="960" y2="630" stroke="#22c55e" stroke-opacity="0.05" stroke-width="1"></line><line x1="1020" y1="0" x2="1020" y2="630" stroke="#22c55e" stroke-opacity="0.05" stroke-width="1"></line><line x1="1080" y1="0" x2="1080" y2="630" stroke="#22c55e" stroke-opacity="0.05" stroke-width="1"></line><line x1="1140" y1="0" x2="1140" y2="630" stroke="#22c55e" stroke-opacity="0.05" stroke-width="1"></line><line x1="1200" y1="0" x2="1200" y2="630" stroke="#22c55e" stroke-opacity="0.05" stroke-width="1"></line>
  <line x1="0" y1="0" x2="1200" y2="0" stroke="#22c55e" stroke-opacity="0.05" stroke-width="1"></line><line x1="0" y1="63" x2="1200" y2="63" stroke="#22c55e" stroke-opacity="0.05" stroke-width="1"></line><line x1="0" y1="126" x2="1200" y2="126" stroke="#22c55e" stroke-opacity="0.05" stroke-width="1"></line><line x1="0" y1="189" x2="1200" y2="189" stroke="#22c55e" stroke-opacity="0.05" stroke-width="1"></line><line x1="0" y1="252" x2="1200" y2="252" stroke="#22c55e" stroke-opacity="0.05" stroke-width="1"></line><line x1="0" y1="315" x2="1200" y2="315" stroke="#22c55e" stroke-opacity="0.05" stroke-width="1"></line><line x1="0" y1="378" x2="1200" y2="378" stroke="#22c55e" stroke-opacity="0.05" stroke-width="1"></line><line x1="0" y1="441" x2="1200" y2="441" stroke="#22c55e" stroke-opacity="0.05" stroke-width="1"></line><line x1="0" y1="504" x2="1200" y2="504" stroke="#22c55e" stroke-opacity="0.05" stroke-width="1"></line><line x1="0" y1="567" x2="1200" y2="567" stroke="#22c55e" stroke-opacity="0.05" stroke-width="1"></line><line x1="0" y1="630" x2="1200" y2="630" stroke="#22c55e" stroke-opacity="0.05" stroke-width="1"></line>

  
  <rect width="1200" height="630" fill="url(#glow)"></rect>

  
  <rect width="1200" height="3" fill="#22c55e"></rect>

  
  <text x="600" y="210" font-family="&#39;Courier New&#39;, Courier, monospace" font-size="96" font-weight="700" text-anchor="middle" letter-spacing="2">
    <tspan fill="#f0f0f0">LAP</tspan><tspan fill="#22c55e">Z</tspan><tspan fill="#f0f0f0">Y</tspan>
  </text>

  
  <text x="600" y="275" font-family="system-ui, sans-serif" font-size="24" font-weight="400" fill="#555" text-anchor="middle">Mais que cronometragem:</text>
  <text x="600" y="308" font-family="system-ui, sans-serif" font-size="24" font-weight="500" fill="#aaaaaa" text-anchor="middle">sua estratégia de corrida, em tempo real.</text>

  
  <line x1="200" y1="348" x2="1000" y2="348" stroke="url(#divider)" stroke-width="1"></line>
  <circle cx="600" cy="348" r="4" fill="#22c55e"></circle>

  
  
  <rect x="155" y="372" width="210" height="82" rx="10" fill="rgba(255,255,255,0.025)" stroke="rgba(255,255,255,0.08)" stroke-width="1"></rect>
  <text x="260" y="396" font-family="system-ui,sans-serif" font-size="11" fill="#444" text-anchor="middle" letter-spacing="1">MELHOR VOLTA</text>
  <text x="260" y="433" font-family="&#39;Courier New&#39;,monospace" font-size="22" font-weight="700" fill="#a855f7" text-anchor="middle">0:58.341</text>

  
  <rect x="495" y="372" width="210" height="82" rx="10" fill="rgba(255,255,255,0.025)" stroke="rgba(255,255,255,0.08)" stroke-width="1"></rect>
  <text x="600" y="396" font-family="system-ui,sans-serif" font-size="11" fill="#444" text-anchor="middle" letter-spacing="1">SETOR 1</text>
  <text x="600" y="433" font-family="&#39;Courier New&#39;,monospace" font-size="22" font-weight="700" fill="#22c55e" text-anchor="middle">▲ 0:19.120</text>

  
  <rect x="835" y="372" width="210" height="82" rx="10" fill="rgba(255,255,255,0.025)" stroke="rgba(255,255,255,0.08)" stroke-width="1"></rect>
  <text x="940" y="396" font-family="system-ui,sans-serif" font-size="11" fill="#444" text-anchor="middle" letter-spacing="1">SETOR 2</text>
  <text x="940" y="433" font-family="&#39;Courier New&#39;,monospace" font-size="22" font-weight="700" fill="#ef4444" text-anchor="middle">▼ 0:22.840</text>

  
  <text x="600" y="568" font-family="system-ui,sans-serif" font-size="13" fill="#2a2a2a" text-anchor="middle">Disponível na Google Play  ·  lapzy.app</text>
</svg>